<?xml version="1.0" standalone="no"?>
<!DOCTYPE svg PUBLIC "-//W3C//DTD SVG 20010904//EN"
 "http://www.w3.org/TR/2001/REC-SVG-20010904/DTD/svg10.dtd">
<svg version="1.0" xmlns="http://www.w3.org/2000/svg"
 width="512.000000pt" height="512.000000pt" viewBox="0 0 512.000000 512.000000"
 preserveAspectRatio="xMidYMid meet">

<g transform="translate(0.000000,512.000000) scale(0.100000,-0.100000)"
fill="#000000" stroke="none">
<path d="M5012 5095 c-8 -18 -12 -119 -12 -324 0 -334 -6 -311 76 -311 l44 0
0 330 0 330 -48 0 c-43 0 -50 -3 -60 -25z"/>
<path d="M3578 5093 l-28 -4 0 -313 0 -313 38 -7 c20 -3 300 -6 622 -6 322 0
602 3 623 6 l37 7 0 312 0 312 -46 7 c-50 6 -1201 6 -1246 -1z"/>
<path d="M0 4765 l0 -325 273 2 272 3 0 320 0 320 -272 3 -273 2 0 -325z"/>
<path d="M692 5060 l-22 -9 2 -308 3 -308 660 0 660 0 3 308 2 307 -26 10
c-33 13 -1250 12 -1282 0z"/>
<path d="M2138 5063 c-17 -4 -18 -28 -18 -319 l0 -314 658 2 657 3 3 311 2
311 -31 7 c-35 7 -1244 6 -1271 -1z"/>
<path d="M2190 4343 c-133 -55 -202 -273 -203 -648 -1 -436 92 -675 261 -675
65 0 140 66 179 157 50 121 74 285 74 513 0 251 -27 415 -89 537 -40 79 -87
115 -154 119 -29 2 -60 1 -68 -3z m94 -222 c28 -31 44 -99 57 -247 18 -215 0
-509 -37 -587 -21 -43 -59 -63 -83 -45 -31 24 -40 43 -57 113 -32 140 -29 573
6 696 22 79 76 112 114 70z"/>
<path d="M3275 4320 c-3 -5 -12 -51 -20 -102 -8 -51 -22 -136 -30 -188 -32
-203 -47 -299 -61 -387 -8 -51 -21 -135 -29 -185 -7 -51 -21 -140 -31 -198 -9
-58 -17 -125 -18 -150 l-1 -45 67 -3 c83 -4 84 -2 100 145 6 60 16 114 21 121
6 8 38 12 93 12 99 0 97 2 108 -125 4 -44 12 -97 17 -118 l10 -38 72 3 72 3
-2 58 c-1 31 -11 112 -22 180 -31 192 -110 695 -136 872 -25 163 -19 155 -119
155 -47 0 -88 -4 -91 -10z m96 -272 c1 -4 24 -190 43 -346 9 -73 14 -138 11
-143 -4 -5 -33 -9 -66 -9 -49 0 -59 3 -59 18 -1 45 55 482 62 482 5 0 8 -1 9
-2z"/>
<path d="M1474 4297 c-2 -7 -3 -58 -2 -113 l3 -99 133 -3 c72 -1 132 -6 132
-10 0 -4 -27 -79 -60 -167 -34 -88 -78 -207 -100 -265 -21 -58 -47 -127 -58
-155 -82 -211 -82 -211 -82 -326 l0 -109 234 0 c129 0 237 3 239 8 3 4 6 54 8
112 l4 105 -150 5 c-92 3 -149 9 -148 15 1 6 67 185 147 400 l146 389 0 113 0
113 -220 0 c-174 0 -222 -3 -226 -13z"/>
<path d="M2572 3683 l3 -628 64 -3 63 -3 -3 463 c-2 255 -1 443 2 418 3 -25
13 -85 22 -135 27 -151 87 -506 97 -570 6 -33 15 -86 21 -118 l12 -58 91 3 91
3 3 628 2 627 -66 0 -66 0 3 -457 c2 -252 1 -440 -3 -418 -3 22 -13 83 -22
135 -15 89 -24 144 -61 375 -8 50 -25 151 -38 225 l-22 135 -98 3 -97 3 2
-628z"/>
<path d="M1359 2103 c-31 -5 -100 -67 -123 -110 -26 -52 -54 -144 -72 -243
-26 -143 -24 -498 4 -635 47 -231 120 -335 235 -335 77 0 130 44 177 145 55
121 80 280 80 523 0 333 -53 539 -165 634 -21 17 -93 29 -136 21z m80 -225
c34 -36 50 -107 61 -272 11 -161 0 -446 -19 -512 -24 -82 -59 -116 -100 -94
-53 28 -71 114 -78 365 -8 286 11 449 58 509 25 32 52 33 78 4z"/>
<path d="M3081 2103 c-105 -21 -195 -170 -236 -388 -25 -132 -23 -443 3 -585
46 -245 126 -350 267 -350 70 0 141 35 193 95 l32 36 0 294 c0 161 -3 300 -6
309 -5 13 -25 16 -120 16 l-114 0 1 -72 c2 -118 8 -132 52 -136 l37 -3 0 -144
c0 -155 -4 -168 -56 -181 -40 -10 -81 14 -103 60 -34 72 -45 160 -45 376 1
269 25 386 94 444 47 39 76 34 130 -23 l46 -49 32 64 c18 35 32 76 32 90 0 32
-29 73 -78 113 -39 30 -108 45 -161 34z"/>
<path d="M4675 2073 c-4 -10 -13 -58 -20 -108 -8 -49 -21 -135 -30 -190 -40
-254 -99 -627 -131 -835 -8 -52 -12 -101 -9 -107 3 -9 27 -13 74 -13 l70 0 10
38 c5 20 12 69 16 107 3 39 8 82 11 97 l6 28 94 0 c108 0 96 15 113 -142 15
-135 10 -128 96 -128 48 0 75 4 77 12 3 7 1 35 -4 63 -4 27 -15 93 -23 145
-18 115 -40 251 -61 385 -17 107 -36 228 -58 377 -33 215 -38 244 -47 266 -8
20 -15 22 -93 22 -71 0 -85 -3 -91 -17z m105 -308 c0 -19 6 -81 14 -137 29
-204 38 -297 33 -313 -8 -20 -115 -22 -123 -1 -3 7 2 71 10 142 9 71 21 174
27 229 6 55 13 106 15 113 7 25 24 1 24 -33z"/>
<path d="M60 1451 l0 -632 73 3 72 3 5 205 5 205 70 5 c83 6 126 28 172 88 46
61 73 157 80 287 12 228 -43 381 -157 441 -28 14 -64 19 -177 22 l-143 4 0
-631z m270 391 c39 -40 53 -100 48 -207 -5 -96 -22 -142 -60 -169 -30 -21 -94
-21 -102 0 -8 21 -8 389 1 397 3 4 24 7 45 7 30 0 46 -7 68 -28z"/>
<path d="M620 1446 l0 -636 75 0 75 0 0 241 0 240 22 -3 c18 -2 26 -18 49 -93
24 -80 93 -322 106 -367 4 -15 17 -18 89 -18 56 0 84 4 84 11 0 6 -13 53 -29
103 -17 50 -53 164 -81 253 l-51 161 40 54 c65 85 85 159 85 308 -1 196 -36
288 -139 355 -26 17 -52 20 -177 23 l-148 4 0 -636z m262 399 c48 -45 63 -166
32 -259 -21 -62 -60 -85 -131 -77 -10 1 -13 44 -13 181 l0 180 43 0 c31 0 49
-6 69 -25z"/>
<path d="M2337 2074 c-4 -4 -7 -290 -7 -636 l0 -628 213 2 212 3 3 88 c2 57
-1 94 -9 103 -9 11 -41 14 -134 14 -103 0 -124 3 -129 16 -9 23 -7 277 2 291
5 8 44 13 112 15 l105 3 3 103 3 102 -103 0 c-57 0 -109 4 -116 8 -9 7 -12 45
-10 158 l3 149 127 3 126 3 7 83 c11 133 31 121 -201 124 -110 1 -203 -1 -207
-4z"/>
<path d="M3440 1966 l0 -105 63 -3 62 -3 3 -417 2 -418 -65 0 -65 0 0 -105 0
-105 208 2 207 3 3 88 c2 55 -1 94 -8 103 -7 7 -36 14 -68 16 l-57 3 0 415 0
415 62 3 c74 4 75 5 71 127 l-3 80 -207 3 -208 2 0 -104z"/>
<path d="M3977 2063 c-4 -3 -7 -287 -7 -630 l0 -623 119 0 c133 0 185 15 232
66 101 110 139 265 139 569 0 253 -27 393 -95 501 -60 94 -126 124 -274 124
-59 0 -111 -3 -114 -7z m219 -215 c72 -26 106 -156 106 -403 0 -298 -44 -425
-147 -425 l-25 0 0 413 c0 228 3 417 7 420 9 10 22 9 59 -5z"/>
<path d="M1704 2037 c-3 -8 -4 -54 -2 -103 l3 -89 90 -5 90 -5 3 -512 2 -513
75 0 75 0 0 515 0 515 85 0 84 0 5 33 c3 17 7 64 8 102 l3 70 -258 3 c-208 2
-258 0 -263 -11z"/>
<path d="M4995 697 c-3 -7 -4 -152 -3 -322 l3 -310 63 -3 62 -3 0 326 0 325
-60 0 c-40 0 -62 -4 -65 -13z"/>
<path d="M0 365 l0 -325 264 0 c231 0 265 2 270 16 3 9 6 152 6 319 0 267 -2
304 -16 309 -9 3 -130 6 -270 6 l-254 0 0 -325z"/>
<path d="M3537 683 c-4 -3 -7 -143 -7 -310 l0 -303 26 -10 c34 -13 1244 -13
1278 0 l26 10 -2 307 -3 308 -656 3 c-360 1 -659 -1 -662 -5z"/>
<path d="M685 661 l-30 -6 0 -310 0 -310 30 -6 c39 -9 1221 -9 1260 0 l30 6 0
310 0 309 -25 7 c-31 9 -1224 9 -1265 0z"/>
<path d="M2130 661 l-25 -7 0 -309 0 -310 30 -6 c39 -9 1221 -9 1260 0 l30 6
0 310 0 309 -25 7 c-14 4 -299 7 -635 7 -335 0 -621 -3 -635 -7z"/>
</g>
</svg>
