<?xml version="1.0" standalone="no"?>
<!DOCTYPE svg PUBLIC "-//W3C//DTD SVG 20010904//EN"
 "http://www.w3.org/TR/2001/REC-SVG-20010904/DTD/svg10.dtd">
<svg version="1.0" xmlns="http://www.w3.org/2000/svg"
 width="192.000000pt" height="192.000000pt" viewBox="0 0 192.000000 192.000000"
 preserveAspectRatio="xMidYMid meet">

<g transform="translate(0.000000,192.000000) scale(0.100000,-0.100000)"
fill="#000000" stroke="none">
<path d="M1880 1795 c0 -118 1 -125 20 -125 19 0 20 7 20 125 0 118 -1 125
-20 125 -19 0 -20 -7 -20 -125z"/>
<path d="M0 1790 l0 -120 105 0 106 0 -3 118 -3 117 -102 3 -103 3 0 -121z"/>
<path d="M1330 1790 l0 -120 248 2 247 3 0 115 0 115 -247 3 -248 2 0 -120z"/>
<path d="M250 1780 l0 -120 250 0 250 0 0 120 0 120 -250 0 -250 0 0 -120z"/>
<path d="M794 1887 c-2 -7 -3 -60 -2 -118 l3 -104 248 -3 247 -2 0 120 0 120
-245 0 c-194 0 -247 -3 -251 -13z"/>
<path d="M796 1611 c-58 -64 -70 -320 -20 -424 32 -68 95 -73 128 -10 38 74
47 282 15 373 -25 74 -85 103 -123 61z m75 -103 c6 -25 10 -90 7 -155 -2 -92
-6 -116 -21 -130 -17 -17 -19 -17 -32 0 -28 39 -31 258 -4 309 17 31 38 20 50
-24z"/>
<path d="M557 1613 c-4 -3 -7 -24 -7 -45 l0 -38 50 0 c28 0 50 -3 50 -6 0 -4
-25 -72 -55 -151 -37 -97 -55 -159 -55 -189 l0 -45 88 3 87 3 3 43 3 42 -55 0
c-31 0 -56 2 -56 4 0 2 25 69 55 150 37 98 55 161 55 191 l0 45 -78 0 c-43 0
-82 -3 -85 -7z"/>
<path d="M965 1608 c-3 -7 -4 -115 -3 -238 3 -224 3 -225 25 -228 22 -3 23 -2
25 155 l3 158 23 -135 c33 -193 29 -180 68 -180 l34 0 0 240 0 240 -25 0 -25
0 -1 -147 -2 -148 -14 80 c-41 228 -35 210 -71 213 -20 2 -34 -2 -37 -10z"/>
<path d="M1225 1608 c-7 -23 -65 -408 -65 -434 0 -19 5 -24 25 -24 25 0 31 10
37 70 3 21 9 26 39 28 l36 3 7 -50 c6 -49 8 -51 37 -51 30 0 31 2 26 33 -3 17
-20 123 -38 235 l-32 202 -34 0 c-18 0 -35 -6 -38 -12z m57 -270 c-2 -5 -12
-8 -24 -8 -20 0 -20 4 -14 73 11 114 19 121 31 27 6 -47 9 -88 7 -92z"/>
<path d="M477 760 c-36 -43 -50 -124 -44 -255 5 -118 22 -173 59 -199 33 -23
53 -20 81 14 36 42 50 124 45 260 -4 92 -9 123 -26 156 -32 63 -75 72 -115 24z
m74 -77 c15 -39 8 -288 -9 -305 -10 -10 -16 -9 -30 5 -14 15 -17 38 -17 155 0
75 3 145 7 155 11 26 37 21 49 -10z"/>
<path d="M1117 760 c-42 -49 -52 -95 -52 -230 0 -113 2 -130 25 -175 32 -64
65 -78 118 -50 l37 20 0 125 0 125 -40 0 c-38 0 -40 -2 -43 -32 -2 -24 2 -34
17 -43 17 -8 21 -20 21 -58 0 -76 -40 -99 -66 -37 -17 42 -18 205 -1 254 17
48 40 60 66 36 23 -20 23 -20 40 13 20 39 -17 82 -72 82 -16 0 -35 -11 -50
-30z"/>
<path d="M20 545 l0 -235 30 0 30 0 0 73 0 73 37 10 c61 15 78 49 78 161 0 94
0 95 -33 124 -27 25 -41 29 -87 29 l-55 0 0 -235z m108 143 c18 -18 15 -113
-4 -132 -34 -35 -44 -20 -44 64 0 70 2 80 18 80 10 0 23 -5 30 -12z"/>
<path d="M230 539 l0 -240 28 3 c27 3 27 3 32 98 6 104 9 103 44 -15 22 -76
24 -80 55 -83 17 -2 31 0 31 4 0 4 -13 49 -30 100 l-30 93 20 34 c43 72 34
187 -17 226 -19 15 -40 21 -79 21 l-54 0 0 -241z m110 142 c16 -32 12 -79 -10
-101 -30 -30 -40 -17 -40 56 0 57 2 64 20 64 10 0 24 -9 30 -19z"/>
<path d="M874 767 c-2 -7 -3 -114 -2 -237 l3 -225 78 -3 77 -3 0 41 0 40 -50
0 -50 0 0 59 0 60 43 3 c41 3 42 4 45 41 l3 37 -45 0 -46 0 0 60 0 60 50 0 50
0 0 40 0 40 -75 0 c-52 0 -77 -4 -81 -13z"/>
<path d="M1290 741 c0 -33 3 -40 23 -43 22 -3 22 -5 22 -158 0 -153 0 -155
-22 -158 -20 -3 -23 -10 -23 -43 l0 -40 78 3 77 3 3 38 c3 34 1 37 -22 37
l-26 0 0 160 0 160 26 0 c23 0 25 3 22 38 l-3 37 -77 3 -78 3 0 -40z"/>
<path d="M1490 540 l0 -240 40 0 c56 0 94 22 116 67 28 56 28 290 0 347 -22
43 -64 66 -121 66 l-35 0 0 -240z m86 152 c25 -16 34 -56 34 -146 0 -114 -16
-165 -52 -166 -5 0 -8 72 -8 160 0 88 3 160 8 160 4 0 12 -4 18 -8z"/>
<path d="M1750 771 c0 -6 -16 -110 -35 -231 -19 -121 -35 -223 -35 -225 0 -3
13 -5 29 -5 27 0 30 3 36 50 7 49 8 50 41 50 35 0 39 -6 46 -70 2 -19 10 -26
31 -28 34 -4 35 2 3 201 -14 84 -28 177 -33 207 -8 55 -8 55 -46 58 -21 2 -37
-1 -37 -7z m55 -216 l7 -65 -27 0 c-25 0 -27 3 -22 28 3 15 9 56 13 92 6 54 9
60 15 37 4 -15 11 -57 14 -92z"/>
<path d="M640 730 c0 -39 1 -40 35 -40 l35 0 0 -195 0 -195 25 0 25 0 2 193 3
192 33 3 c30 3 32 6 32 43 l0 39 -95 0 -95 0 0 -40z"/>
<path d="M0 140 l0 -120 100 0 100 0 0 120 0 120 -100 0 -100 0 0 -120z"/>
<path d="M1324 247 c-2 -7 -3 -60 -2 -118 l3 -104 248 -3 247 -2 0 120 0 120
-245 0 c-194 0 -247 -3 -251 -13z"/>
<path d="M1872 143 c3 -114 4 -118 26 -121 22 -3 22 -2 22 117 l0 121 -25 0
-26 0 3 -117z"/>
<path d="M250 130 l0 -120 245 0 245 0 0 120 0 120 -245 0 -245 0 0 -120z"/>
<path d="M790 130 l0 -120 245 0 245 0 0 120 0 120 -245 0 -245 0 0 -120z"/>
</g>
</svg>
