<?xml version="1.0" standalone="no"?>
<!DOCTYPE svg PUBLIC "-//W3C//DTD SVG 20010904//EN"
 "http://www.w3.org/TR/2001/REC-SVG-20010904/DTD/svg10.dtd">
<svg version="1.0" xmlns="http://www.w3.org/2000/svg"
 width="180.000000pt" height="180.000000pt" viewBox="0 0 180.000000 180.000000"
 preserveAspectRatio="xMidYMid meet">

<g transform="translate(0.000000,180.000000) scale(0.100000,-0.100000)"
fill="#000000" stroke="none">
<path d="M1760 1685 c0 -108 1 -115 20 -115 19 0 20 7 20 115 0 108 -1 115
-20 115 -19 0 -20 -7 -20 -115z"/>
<path d="M0 1675 l0 -115 95 0 95 0 0 115 0 115 -95 0 -95 0 0 -115z"/>
<path d="M1250 1680 l0 -110 230 0 230 0 0 110 0 110 -230 0 -230 0 0 -110z"/>
<path d="M240 1670 l0 -110 230 0 230 0 0 110 0 110 -230 0 -230 0 0 -110z"/>
<path d="M747 1773 c-4 -3 -7 -53 -7 -110 l0 -103 235 0 235 0 0 110 0 110
-228 0 c-126 0 -232 -3 -235 -7z"/>
<path d="M741 1504 c-31 -39 -44 -118 -40 -240 5 -125 26 -182 73 -199 25 -8
31 -6 56 22 38 42 54 123 48 243 -6 102 -28 174 -59 190 -30 17 -57 11 -78
-16z m73 -77 c10 -37 7 -247 -4 -268 -15 -27 -38 -23 -47 9 -13 44 -9 244 5
269 14 26 38 21 46 -10z"/>
<path d="M520 1480 l0 -40 45 0 c25 0 45 -4 45 -8 0 -5 -22 -68 -50 -140 -33
-88 -50 -146 -50 -177 l0 -45 79 0 79 0 6 31 c3 17 6 35 6 40 0 5 -25 9 -55 9
-30 0 -55 2 -55 4 0 2 25 69 56 150 35 94 54 159 52 179 l-3 32 -77 3 -78 3 0
-41z"/>
<path d="M904 1507 c-2 -7 -3 -107 -2 -222 3 -209 3 -210 26 -213 22 -3 22 -3
23 140 l1 143 12 -65 c7 -36 19 -100 26 -142 l13 -78 33 0 34 0 0 225 0 225
-25 0 -25 0 -1 -137 -1 -138 -24 135 c-12 74 -23 136 -23 138 -3 9 -63 -1 -67
-11z"/>
<path d="M1150 1513 c0 -5 -9 -62 -20 -128 -11 -66 -25 -151 -30 -189 -6 -38
-13 -79 -16 -92 -6 -21 -3 -24 25 -24 25 0 31 4 31 23 0 52 11 67 46 67 31 0
34 -3 34 -29 0 -45 10 -61 36 -61 30 0 30 -1 -1 197 -14 87 -28 177 -32 201
-5 40 -7 42 -39 42 -19 0 -34 -3 -34 -7z m49 -220 c1 -37 -2 -43 -20 -43 -19
0 -20 4 -14 58 3 31 9 71 13 87 6 29 6 28 13 -15 4 -25 8 -64 8 -87z"/>
<path d="M451 721 c-33 -33 -46 -98 -45 -221 1 -130 16 -183 58 -214 25 -19
29 -19 54 -6 43 24 61 93 61 230 0 119 -12 174 -45 211 -22 24 -59 24 -83 0z
m77 -184 c4 -111 -9 -187 -34 -187 -24 0 -34 46 -34 163 0 88 4 118 16 136 15
21 18 22 32 7 13 -12 17 -42 20 -119z"/>
<path d="M1052 717 c-41 -44 -55 -95 -55 -207 0 -165 28 -234 96 -234 66 0 77
21 77 151 l0 113 -40 0 c-39 0 -40 -1 -40 -35 0 -20 6 -37 16 -43 11 -6 14
-21 12 -58 -2 -41 -6 -49 -23 -49 -32 0 -45 42 -45 145 0 71 4 104 18 129 21
42 34 48 57 25 17 -17 18 -17 31 1 19 26 18 38 -9 63 -30 28 -68 28 -95 -1z"/>
<path d="M20 510 l0 -220 25 0 c24 0 25 2 25 70 0 68 1 70 28 76 46 10 50 12
66 37 37 56 32 192 -9 233 -20 20 -35 24 -80 24 l-55 0 0 -220z m98 138 c18
-18 15 -113 -3 -128 -30 -25 -45 -4 -45 63 0 35 3 67 7 70 10 11 28 8 41 -5z"/>
<path d="M220 505 l0 -225 25 0 c25 0 25 1 25 85 0 47 4 85 8 85 5 0 20 -37
33 -82 22 -76 27 -83 52 -86 34 -4 34 1 2 102 l-26 79 22 44 c17 35 20 57 17
108 -5 88 -30 115 -105 115 l-53 0 0 -225z m96 130 c23 -35 8 -99 -24 -103
-21 -3 -22 0 -22 62 0 73 16 87 46 41z"/>
<path d="M820 505 l0 -225 75 0 75 0 0 40 0 40 -50 0 -50 0 0 55 0 55 40 0 40
0 0 40 0 40 -41 0 -40 0 3 53 3 52 41 3 c33 2 43 8 48 25 12 45 9 47 -69 47
l-75 0 0 -225z"/>
<path d="M1210 690 c0 -33 3 -40 20 -40 19 0 20 -7 20 -145 0 -138 -1 -145
-20 -145 -17 0 -20 -7 -20 -40 l0 -41 73 3 72 3 0 35 c0 29 -4 36 -22 38 -23
3 -23 6 -23 147 0 141 0 144 23 147 18 2 22 9 22 38 l0 35 -72 3 -73 3 0 -41z"/>
<path d="M1400 506 l0 -226 35 0 c86 0 125 57 133 195 5 97 -10 180 -41 219
-19 23 -33 30 -75 34 l-52 5 0 -227z m99 113 c15 -44 14 -198 -2 -229 -7 -14
-20 -26 -30 -28 -15 -3 -17 10 -17 142 0 137 1 146 19 146 12 0 23 -11 30 -31z"/>
<path d="M1640 721 c0 -5 -13 -96 -30 -201 -37 -234 -37 -230 -6 -230 22 0 26
6 32 45 6 43 8 45 40 45 31 0 33 -2 40 -45 6 -41 9 -45 35 -45 25 0 29 3 24
22 -2 13 -16 100 -30 193 -37 246 -31 225 -71 225 -19 0 -34 -4 -34 -9z m54
-208 c7 -52 6 -53 -20 -53 -24 0 -26 3 -20 33 3 17 9 57 12 87 7 54 8 54 15
20 4 -19 10 -59 13 -87z"/>
<path d="M600 685 c0 -32 2 -35 30 -35 l30 0 2 -182 3 -183 25 0 25 0 3 183 2
182 30 0 c28 0 30 3 30 35 l0 35 -90 0 -90 0 0 -35z"/>
<path d="M1754 237 c-2 -7 -3 -58 -2 -113 3 -94 4 -99 26 -102 22 -3 22 -2 22
112 0 110 -1 116 -20 116 -11 0 -23 -6 -26 -13z"/>
<path d="M0 130 l0 -110 95 0 95 0 0 110 0 110 -95 0 -95 0 0 -110z"/>
<path d="M1240 130 l0 -110 235 0 235 0 0 110 0 110 -235 0 -235 0 0 -110z"/>
<path d="M230 120 l0 -110 233 2 232 3 3 108 3 107 -236 0 -235 0 0 -110z"/>
<path d="M740 120 l0 -110 230 0 230 0 0 110 0 110 -230 0 -230 0 0 -110z"/>
</g>
</svg>
