<?xml version="1.0" standalone="no"?>
<!DOCTYPE svg PUBLIC "-//W3C//DTD SVG 20010904//EN"
 "http://www.w3.org/TR/2001/REC-SVG-20010904/DTD/svg10.dtd">
<svg version="1.0" xmlns="http://www.w3.org/2000/svg"
 width="32.000000pt" height="32.000000pt" viewBox="0 0 32.000000 32.000000"
 preserveAspectRatio="xMidYMid meet">

<g transform="translate(0.000000,32.000000) scale(0.100000,-0.100000)"
fill="#000000" stroke="none">
<path d="M0 300 c0 -11 7 -20 15 -20 8 0 15 9 15 20 0 11 -7 20 -15 20 -8 0
-15 -9 -15 -20z"/>
<path d="M40 300 c0 -17 7 -20 40 -20 33 0 40 3 40 20 0 17 -7 20 -40 20 -33
0 -40 -3 -40 -20z"/>
<path d="M130 300 c0 -17 7 -20 40 -20 33 0 40 3 40 20 0 17 -7 20 -40 20 -33
0 -40 -3 -40 -20z"/>
<path d="M220 300 c0 -17 7 -20 40 -20 33 0 40 3 40 20 0 17 -7 20 -40 20 -33
0 -40 -3 -40 -20z"/>
<path d="M312 300 c0 -14 2 -19 5 -12 2 6 2 18 0 25 -3 6 -5 1 -5 -13z"/>
<path d="M98 257 c7 -8 7 -18 2 -27 -15 -23 -12 -40 6 -40 12 0 14 3 6 13 -6
7 -7 19 -3 26 6 9 10 5 15 -13 6 -25 26 -37 26 -16 0 6 -4 10 -9 10 -5 0 -11
14 -14 30 -4 19 -13 30 -23 30 -12 0 -14 -3 -6 -13z"/>
<path d="M130 260 c0 -5 5 -10 10 -10 6 0 10 5 10 10 0 6 -4 10 -10 10 -5 0
-10 -4 -10 -10z"/>
<path d="M154 246 c-3 -14 -1 -33 5 -43 8 -14 10 -14 11 -3 0 13 1 13 10 0 14
-22 19 -9 11 30 -7 41 -28 50 -37 16z"/>
<path d="M200 244 c0 -14 8 -33 17 -42 16 -16 16 -16 10 1 -4 10 -7 30 -7 43
0 13 -4 24 -10 24 -5 0 -10 -12 -10 -26z"/>
<path d="M0 88 l0 -43 20 30 20 30 0 -30 1 -30 15 25 c11 19 14 20 9 5 -4 -16
0 -21 15 -22 17 -2 20 4 20 37 0 35 -2 38 -27 37 -16 -1 -31 -6 -35 -12 -5 -6
-8 -5 -8 3 0 6 -7 12 -15 12 -11 0 -15 -11 -15 -42z m87 -5 c-3 -10 -5 -4 -5
12 0 17 2 24 5 18 2 -7 2 -21 0 -30z"/>
<path d="M117 93 c8 -51 10 -51 15 -4 2 28 0 41 -9 41 -8 0 -10 -12 -6 -37z"/>
<path d="M150 90 c0 -22 3 -40 8 -40 4 0 7 18 7 40 0 22 -3 40 -7 40 -5 0 -8
-18 -8 -40z"/>
<path d="M180 90 c0 -37 2 -40 28 -40 25 0 27 3 27 40 0 37 -2 40 -27 40 -26
0 -28 -3 -28 -40z m39 -2 c-1 -31 -1 -31 -8 -8 l-8 25 -5 -25 c-5 -22 -5 -21
-7 8 -1 22 3 32 14 32 10 0 15 -10 14 -32z"/>
<path d="M250 91 c0 -34 3 -40 20 -38 11 1 20 5 20 10 0 4 5 5 10 2 6 -4 10 6
10 24 0 16 -5 33 -11 37 -8 5 -10 -1 -7 -20 3 -14 2 -26 -3 -26 -4 0 -9 10
-11 22 -6 41 -28 33 -28 -11z m17 -13 c-3 -7 -5 -2 -5 12 0 14 2 19 5 13 2 -7
2 -19 0 -25z"/>
<path d="M0 20 c0 -11 7 -20 15 -20 8 0 15 9 15 20 0 11 -7 20 -15 20 -8 0
-15 -9 -15 -20z"/>
<path d="M40 20 c0 -17 7 -20 40 -20 33 0 40 3 40 20 0 17 -7 20 -40 20 -33 0
-40 -3 -40 -20z"/>
<path d="M130 20 c0 -17 7 -20 40 -20 33 0 40 3 40 20 0 17 -7 20 -40 20 -33
0 -40 -3 -40 -20z"/>
<path d="M220 20 c0 -17 7 -20 40 -20 33 0 40 3 40 20 0 17 -7 20 -40 20 -33
0 -40 -3 -40 -20z"/>
<path d="M311 24 c0 -11 3 -14 6 -6 3 7 2 16 -1 19 -3 4 -6 -2 -5 -13z"/>
</g>
</svg>
