<?xml version="1.0" standalone="no"?>
<!DOCTYPE svg PUBLIC "-//W3C//DTD SVG 20010904//EN"
 "http://www.w3.org/TR/2001/REC-SVG-20010904/DTD/svg10.dtd">
<svg version="1.0" xmlns="http://www.w3.org/2000/svg"
 width="16.000000pt" height="16.000000pt" viewBox="0 0 16.000000 16.000000"
 preserveAspectRatio="xMidYMid meet">

<g transform="translate(0.000000,16.000000) scale(0.100000,-0.100000)"
fill="#000000" stroke="none">
<path d="M0 149 c0 -5 11 -9 24 -9 13 0 27 -6 29 -12 4 -10 6 -10 6 0 1 8 18
12 51 12 28 0 50 4 50 10 0 5 -34 9 -80 9 -44 0 -80 -5 -80 -10z"/>
<path d="M81 118 c-1 -10 6 -18 14 -18 8 0 15 8 15 18 0 13 -2 14 -9 3 -7 -11
-9 -11 -14 0 -4 10 -6 9 -6 -3z"/>
<path d="M0 44 c0 -8 4 -13 8 -10 4 2 14 1 22 -5 12 -7 10 -9 -7 -9 -13 0 -23
-4 -23 -10 0 -13 147 -13 155 0 3 6 -4 10 -17 11 -23 1 -23 1 2 9 l25 8 -27 1
c-16 1 -28 -3 -28 -7 0 -4 -13 -9 -30 -10 -27 -2 -35 5 -31 31 0 4 -10 7 -24
7 -16 0 -25 -6 -25 -16z"/>
<path d="M66 45 c8 -19 14 -19 14 0 0 8 -4 15 -10 15 -5 0 -7 -7 -4 -15z"/>
<path d="M118 53 c7 -3 16 -2 19 1 4 3 -2 6 -13 5 -11 0 -14 -3 -6 -6z"/>
</g>
</svg>
